<mxfile host="65bd71144e">
    <diagram id="TVtLkSLv-zFJecDXfPJF" name="Page-1">
        <mxGraphModel dx="985" dy="708" grid="0" gridSize="10" guides="1" tooltips="1" connect="1" arrows="1" fold="1" page="1" pageScale="1" pageWidth="827" pageHeight="1169" background="#ffffff" math="0" shadow="0">
            <root>
                <mxCell id="0"/>
                <mxCell id="1" parent="0"/>
                <mxCell id="50" value="&lt;font color=&quot;#000000&quot; style=&quot;background-color: rgb(255 , 255 , 255)&quot;&gt;HTTPS&lt;/font&gt;" style="edgeStyle=none;html=1;exitX=0;exitY=0;exitDx=120;exitDy=75;exitPerimeter=0;entryX=0;entryY=0;entryDx=0;entryDy=65;entryPerimeter=0;dashed=1;endArrow=none;endFill=0;strokeColor=#0A0A0A;" edge="1" parent="1" source="19" target="44">
                    <mxGeometry x="0.157" y="22" relative="1" as="geometry">
                        <mxPoint as="offset"/>
                    </mxGeometry>
                </mxCell>
                <mxCell id="19" value="&amp;lt;&amp;lt;device&amp;gt;&amp;gt;&lt;br&gt;&lt;b&gt;Frontend Server&lt;br&gt;(Vercel)&lt;br&gt;&lt;/b&gt;" style="verticalAlign=top;align=center;shape=cube;size=10;direction=south;fontStyle=0;html=1;boundedLbl=1;spacingLeft=5;" vertex="1" parent="1">
                    <mxGeometry x="260" y="50" width="140" height="120" as="geometry"/>
                </mxCell>
                <mxCell id="20" value="&amp;lt;&amp;lt;artifact&amp;gt;&amp;gt;&lt;br&gt;Next.js" style="verticalAlign=middle;align=center;shape=cube;size=0;direction=south;html=1;boundedLbl=1;spacingLeft=5;" vertex="1" parent="19">
                    <mxGeometry width="90" height="40" relative="1" as="geometry">
                        <mxPoint x="20" y="70" as="offset"/>
                    </mxGeometry>
                </mxCell>
                <mxCell id="44" value="&amp;lt;&amp;lt;device&amp;gt;&amp;gt;&lt;br&gt;&lt;b&gt;Backend Server&lt;br&gt;(Azure)&lt;br&gt;&lt;/b&gt;" style="verticalAlign=top;align=center;shape=cube;size=10;direction=south;fontStyle=0;html=1;boundedLbl=1;spacingLeft=5;" vertex="1" parent="1">
                    <mxGeometry x="262" y="213" width="140" height="190" as="geometry"/>
                </mxCell>
                <mxCell id="45" value="&amp;lt;&amp;lt;artifact&amp;gt;&amp;gt;&lt;br&gt;Database" style="verticalAlign=middle;align=center;shape=cube;size=0;direction=south;html=1;boundedLbl=1;spacingLeft=5;" vertex="1" parent="44">
                    <mxGeometry width="90" height="40" relative="1" as="geometry">
                        <mxPoint x="20" y="130" as="offset"/>
                    </mxGeometry>
                </mxCell>
                <mxCell id="51" value="&amp;lt;&amp;lt;artifact&amp;gt;&amp;gt;&lt;br&gt;Web API" style="verticalAlign=middle;align=center;shape=cube;size=0;direction=south;html=1;boundedLbl=1;spacingLeft=5;" vertex="1" parent="44">
                    <mxGeometry x="20" y="72.64764705882351" width="90" height="44.705882352941174" as="geometry"/>
                </mxCell>
                <mxCell id="52" value="&lt;span style=&quot;background-color: rgb(255 , 255 , 255)&quot;&gt;&lt;font color=&quot;#000000&quot;&gt;HTTPS&lt;/font&gt;&lt;/span&gt;" style="edgeStyle=none;html=1;exitX=0;exitY=0;exitDx=65;exitDy=120;exitPerimeter=0;dashed=1;endArrow=none;endFill=0;entryX=0;entryY=0;entryDx=55;entryDy=0;entryPerimeter=0;strokeColor=#0A0A0A;" edge="1" parent="1" source="47" target="19">
                    <mxGeometry x="0.0182" y="-9" relative="1" as="geometry">
                        <mxPoint x="430" y="180" as="targetPoint"/>
                        <mxPoint as="offset"/>
                    </mxGeometry>
                </mxCell>
                <mxCell id="47" value="&amp;lt;&amp;lt;device&amp;gt;&amp;gt;&lt;br&gt;&lt;b&gt;Client&lt;br&gt;(Browser)&lt;br&gt;&lt;/b&gt;" style="verticalAlign=top;align=center;shape=cube;size=10;direction=south;fontStyle=0;html=1;boundedLbl=1;spacingLeft=5;" vertex="1" parent="1">
                    <mxGeometry x="510" y="40" width="120" height="80" as="geometry"/>
                </mxCell>
                <mxCell id="53" value="&lt;font color=&quot;#ffffff&quot;&gt;deployment view&lt;/font&gt;" style="shape=umlFrame;whiteSpace=wrap;html=1;fontColor=#000000;width=150;height=20;strokeColor=#000000;" vertex="1" parent="1">
                    <mxGeometry x="230" y="20" width="436" height="398" as="geometry"/>
                </mxCell>
            </root>
        </mxGraphModel>
    </diagram>
</mxfile>